<svg width="18" height="17" viewBox="0 0 18 17" fill="none" xmlns="http://www.w3.org/2000/svg">
<path d="M3.5 10.3C3.5 10.4105 3.58954 10.5 3.7 10.5H14.3C14.4105 10.5 14.5 10.4105 14.5 10.3V9.7C14.5 9.58954 14.4105 9.5 14.3 9.5H3.7C3.58954 9.5 3.5 9.58954 3.5 9.7V10.3ZM3.5 7.3C3.5 7.41046 3.58954 7.5 3.7 7.5H14.3C14.4105 7.5 14.5 7.41046 14.5 7.3V6.7C14.5 6.58955 14.4105 6.5 14.3 6.5H3.7C3.58954 6.5 3.5 6.58955 3.5 6.7V7.3ZM3.5 4.3C3.5 4.41046 3.58954 4.5 3.7 4.5H14.3C14.4105 4.5 14.5 4.41046 14.5 4.3V3.7C14.5 3.58955 14.4105 3.5 14.3 3.5H3.7C3.58954 3.5 3.5 3.58955 3.5 3.7V4.3ZM1.616 14C1.15533 14 0.771 13.846 0.463 13.538C0.155 13.23 0.000666667 12.8457 0 12.385V1.615C0 1.155 0.154333 0.770669 0.463 0.462002C0.771667 0.153335 1.15567 -0.000664511 1.615 2.15517e-06H16.385C16.845 2.15517e-06 17.229 0.154002 17.537 0.462002C17.845 0.770002 17.9993 1.15434 18 1.615V16.5942C18 16.7723 17.7846 16.8616 17.6586 16.7356L14.9816 14.0586C14.9441 14.0211 14.8932 14 14.8402 14H1.616Z" fill="#1E53CF"/>
</svg>
