<svg width="374" height="400" viewBox="0 0 374 400" fill="none" xmlns="http://www.w3.org/2000/svg">
<mask id="mask0_1_4" style="mask-type:luminance" maskUnits="userSpaceOnUse" x="115" y="97" width="135" height="132">
<path d="M182.317 221.957C215.863 221.957 243.056 195.471 243.056 162.796C243.056 130.121 215.863 103.635 182.317 103.635C148.771 103.635 121.578 130.121 121.578 162.796C121.578 195.471 148.771 221.957 182.317 221.957Z" fill="white" stroke="white" stroke-width="12.1478" stroke-linejoin="round"/>
<path d="M182.367 127.299V162.825L208.117 187.909" stroke="black" stroke-width="12.1478" stroke-linecap="round" stroke-linejoin="round"/>
</mask>
<g mask="url(#mask0_1_4)">
<path d="M253.677 93.3198V232.27H110.94V93.3198H253.677Z" fill="#1E53CF" stroke="#1E53CF" stroke-width="3.03694"/>
</g>
<path d="M326.168 367.249C326.168 370.567 324.815 373.748 322.407 376.094C319.998 378.44 316.732 379.758 313.326 379.758H52.366C48.9599 379.758 45.6934 378.44 43.2849 376.094C40.8765 373.748 39.5234 370.567 39.5234 367.249C39.5234 298.867 116.579 245.829 182.846 245.829C249.113 245.829 326.168 298.867 326.168 367.249Z" fill="#1E53CF"/>
<path d="M372.3 143.143C373.051 143.875 373.474 144.878 373.474 145.927V145.927C373.474 148.073 371.735 149.812 369.589 149.812H275.26C273.115 149.812 271.375 148.073 271.375 145.927V145.927C271.375 144.878 271.799 143.875 272.549 143.143L279.024 136.837C281.387 134.536 282.719 131.377 282.719 128.078V100.088C282.719 83.4852 293.54 68.803 309.55 63.4912C310.45 63.1924 311.08 62.3634 311.08 61.4145V61.4145C311.08 58.4839 312.276 55.6734 314.403 53.6012C316.53 51.529 319.416 50.3648 322.425 50.3648C325.433 50.3648 328.319 51.529 330.446 53.6012C332.574 55.6734 333.769 58.4839 333.769 61.4145V61.4145C333.769 62.3634 334.399 63.1924 335.3 63.4912C351.309 68.803 362.13 83.4852 362.13 100.088V128.078C362.13 131.377 363.463 134.536 365.826 136.837L372.3 143.143ZM333.769 155.337C333.769 158.268 332.574 161.078 330.446 163.15C328.319 165.223 325.433 166.387 322.425 166.387C319.416 166.387 316.53 165.223 314.403 163.15C312.276 161.078 311.08 158.268 311.08 155.337" fill="black"/>
<path d="M100.141 54.5082V11" stroke="#1E53CF" stroke-width="21.2707" stroke-linecap="round"/>
<path d="M250.109 54.5082V11" stroke="#1E53CF" stroke-width="21.2707" stroke-linecap="round"/>
<path d="M267.121 60.7241C258.808 60.7011 191.413 58.6523 182.038 58.6523C102.83 58.6523 63.2087 58.6523 38.6044 82.6176C14 106.583 14 145.158 14 222.326C14 299.477 14 338.069 38.6044 362.034C63.2087 386 102.813 386 182.038 386C261.246 386 300.868 386 325.473 362.034C350.077 338.069 350.077 299.494 350.077 222.326C350.077 213.195 350.065 204.58 350.041 196.483" stroke="#1E53CF" stroke-width="26.5324" stroke-linecap="round" stroke-linejoin="round"/>
</svg>
