<svg width="18" height="21" viewBox="0 0 18 21" fill="none" xmlns="http://www.w3.org/2000/svg">
<path d="M12.8571 18V19.6071C12.8571 20.1397 12.4254 20.5714 11.8929 20.5714H0.964286C0.431719 20.5714 0 20.1397 0 19.6071V4.82143C0 4.28886 0.431719 3.85714 0.964286 3.85714H3.85714V15.75C3.85714 16.9907 4.86647 18 6.10714 18H12.8571ZM12.8571 4.17857V0H6.10714C5.57458 0 5.14286 0.431719 5.14286 0.964286V15.75C5.14286 16.2826 5.57458 16.7143 6.10714 16.7143H17.0357C17.5683 16.7143 18 16.2826 18 15.75V5.14286H13.8214C13.2911 5.14286 12.8571 4.70893 12.8571 4.17857ZM17.7176 2.93187L15.0681 0.282415C14.8873 0.101589 14.642 1.33713e-06 14.3863 0L14.1429 0V3.85714H18V3.6137C18 3.35797 17.8984 3.11271 17.7176 2.93187Z" fill="#1E53CF"/>
</svg>
