<svg width="506" height="506" viewBox="0 0 506 506" fill="none" xmlns="http://www.w3.org/2000/svg">
<path d="M506 253C506 392.728 392.728 506 253 506C113.272 506 0 392.728 0 253C0 113.272 113.272 0 253 0C392.728 0 506 113.272 506 253Z" fill="#D9D9D9"/>
<mask id="mask0_2_21" style="mask-type:luminance" maskUnits="userSpaceOnUse" x="188" y="131" width="135" height="132">
<path d="M255.317 255.957C288.863 255.957 316.056 229.471 316.056 196.796C316.056 164.121 288.863 137.635 255.317 137.635C221.771 137.635 194.578 164.121 194.578 196.796C194.578 229.471 221.771 255.957 255.317 255.957Z" fill="white" stroke="white" stroke-width="12.1478" stroke-linejoin="round"/>
<path d="M255.367 161.299V196.825L281.117 221.909" stroke="black" stroke-width="12.1478" stroke-linecap="round" stroke-linejoin="round"/>
</mask>
<g mask="url(#mask0_2_21)">
<path d="M326.677 127.32V266.27H183.94V127.32H326.677Z" fill="#1E53CF" stroke="#1E53CF" stroke-width="3.03694"/>
</g>
<path d="M399.168 401.249C399.168 404.567 397.815 407.748 395.407 410.094C392.998 412.44 389.732 413.758 386.326 413.758H125.366C121.96 413.758 118.693 412.44 116.285 410.094C113.876 407.748 112.523 404.567 112.523 401.249C112.523 332.867 189.579 279.829 255.846 279.829C322.113 279.829 399.168 332.867 399.168 401.249Z" fill="#1E53CF"/>
<path d="M445.3 177.143C446.051 177.875 446.474 178.878 446.474 179.927V179.927C446.474 182.073 444.735 183.812 442.589 183.812H348.26C346.115 183.812 344.375 182.073 344.375 179.927V179.927C344.375 178.878 344.799 177.875 345.549 177.143L352.024 170.837C354.387 168.536 355.719 165.377 355.719 162.078V134.088C355.719 117.485 366.54 102.803 382.55 97.4912C383.45 97.1924 384.08 96.3634 384.08 95.4145V95.4145C384.08 92.4839 385.276 89.6734 387.403 87.6012C389.53 85.529 392.416 84.3648 395.425 84.3648C398.433 84.3648 401.319 85.529 403.446 87.6012C405.574 89.6734 406.769 92.4839 406.769 95.4145V95.4145C406.769 96.3634 407.399 97.1924 408.3 97.4912C424.309 102.803 435.13 117.485 435.13 134.088V162.078C435.13 165.377 436.463 168.536 438.826 170.837L445.3 177.143ZM406.769 189.337C406.769 192.268 405.574 195.078 403.446 197.15C401.319 199.223 398.433 200.387 395.425 200.387C392.416 200.387 389.53 199.223 387.403 197.15C385.276 195.078 384.08 192.268 384.08 189.337" fill="black"/>
<path d="M173.141 88.5082V45" stroke="#1E53CF" stroke-width="21.2707" stroke-linecap="round"/>
<path d="M323.109 88.5082V45" stroke="#1E53CF" stroke-width="21.2707" stroke-linecap="round"/>
<path d="M340.121 94.7241C331.808 94.7011 264.413 92.6523 255.038 92.6523C175.83 92.6523 136.209 92.6523 111.604 116.618C87 140.583 87 179.158 87 256.326C87 333.477 87 372.069 111.604 396.034C136.209 420 175.813 420 255.038 420C334.246 420 373.868 420 398.473 396.034C423.077 372.069 423.077 333.494 423.077 256.326C423.077 247.195 423.065 238.58 423.041 230.483" stroke="#1E53CF" stroke-width="26.5324" stroke-linecap="round" stroke-linejoin="round"/>
</svg>
